Coordinates
version=1
nRows=10
nColumns=22
inDegrees=yes

Units are S.I. units (second, meters, Newtons, ...)
If the header above contains a line with 'inDegrees', this indicates whether rotational values are in degrees (yes) or radians (no).

endheader
time	pelvis_tilt	pelvis_list	pelvis_rotation	pelvis_tx	pelvis_ty	pelvis_tz	hip_flexion_r	hip_adduction_r	hip_rotation_r	knee_angle_r	ankle_angle_r	subtalar_angle_r	hip_flexion_l	hip_adduction_l	hip_rotation_l	knee_angle_l	ankle_angle_l	subtalar_angle_l	lumbar_extension	lumbar_bending	lumbar_rotation
      0.01000000	     -0.19244615	     -3.87821253	     -5.10180595	     -1.17296684	      1.02527760	     -0.29113189	      2.64502180	      5.69172305	     -6.14614965	    -11.68407567	      8.95054784	     -3.60778947	      2.50737863	     -2.15346669	     -3.50097321	    -11.60062142	      9.94782078	     -4.41946369	     -9.95412520	      3.49787286	      2.96556863
      0.02000000	     -0.18143739	     -3.83432485	     -5.07818320	     -1.17305394	      1.02535849	     -0.29119416	      2.64147201	      5.64065386	     -6.17829335	    -11.68023521	      8.95183377	     -3.63922064	      2.49376946	     -2.08265111	     -3.32049067	    -11.61406891	     10.53305065	     -3.21689486	     -9.97602328	      3.44303377	      2.92185393
      0.03000000	     -0.18347143	     -3.83621306	     -5.08089810	     -1.17314162	      1.02536568	     -0.29117888	      2.64761230	      5.64410061	     -6.17705118	    -11.67727785	      8.95252375	     -3.63916666	      2.49850862	     -2.08601590	     -3.32073479	    -11.61001497	     10.53210929	     -3.21663843	     -9.98737099	      3.43521530	      2.92055363
      0.04000000	     -0.18565334	     -3.83831447	     -5.08394675	     -1.17323727	      1.02537555	     -0.29115802	      2.65454969	      5.64835523	     -6.17494013	    -11.67520068	      8.95209552	     -3.63895626	      2.50373485	     -2.09007838	     -3.32133822	    -11.60555923	     10.53004789	     -3.21627180	     -9.99964239	      3.42552861	      2.91782415
      0.05000000	     -0.18802461	     -3.84047979	     -5.08686534	     -1.17333656	      1.02538238	     -0.29113692	      2.66193343	      5.65233274	     -6.17259299	    -11.67316421	      8.95080202	     -3.63863409	      2.50904352	     -2.09417603	     -3.32239920	    -11.60073541	     10.52739912	     -3.21586858	    -10.01160057	      3.41597905	      2.91411098
      0.06000000	     -0.19081676	     -3.84264857	     -5.08976443	     -1.17344095	      1.02538925	     -0.29111575	      2.67000571	      5.65661342	     -6.17016821	    -11.67082004	      8.94877453	     -3.63819958	      2.51490291	     -2.09845607	     -3.32393676	    -11.59517540	     10.52417252	     -3.21542473	    -10.02368452	      3.40594577	      2.90932710
      0.07000000	     -0.19409515	     -3.84448739	     -5.09243030	     -1.17354175	      1.02539659	     -0.29109292	      2.67834551	      5.66071746	     -6.16759640	    -11.66857476	      8.94593112	     -3.63765118	      2.52076924	     -2.10262428	     -3.32592998	    -11.58940812	     10.52020034	     -3.21491901	    -10.03485633	      3.39602623	      2.90352849
      0.08000000	     -0.20267957	     -3.84185827	     -5.09762869	     -1.17364528	      1.02540040	     -0.29106656	      2.69967294	      5.66094242	     -6.14494435	    -11.68077572	      8.92099693	     -3.63404093	      2.53220441	     -2.10289119	     -3.33806987	    -11.58168211	     10.48847226	     -3.21087343	    -10.03649487	      3.38263830	      2.87482959
      0.09000000	     -0.20668896	     -3.84262447	     -5.10017355	     -1.17373655	      1.02540698	     -0.29105778	      2.70652774	      5.66287217	     -6.14646281	    -11.67405632	      8.92041718	     -3.63366050	      2.53845587	     -2.10492562	     -3.33891262	    -11.57630075	     10.48677696	     -3.21051468	    -10.04564594	      3.37528931	      2.87414048
      0.10000000	     -0.21014672	     -3.84313337	     -5.10192042	     -1.17381679	      1.02541482	     -0.29104148	      2.71294145	      5.66521803	     -6.14720963	    -11.66969840	      8.91848336	     -3.63306339	      2.54372767	     -2.10717216	     -3.34031831	    -11.57091662	     10.48368043	     -3.21003391	    -10.05178793	      3.36530230	      2.87138611
